#tb 0: 1/1200
0,          0,          0,        0,   230400, 0xb1ee55dc
0,        100,        100,        0,   230400, 0x97c580bf
0,        200,        200,        0,   230400, 0xd4bd57e8
0,        300,        300,        0,   230400, 0x412b79aa
0,        400,        400,        0,   230400, 0x928a44d1
0,        500,        500,        0,   230400, 0x6bbdc0e4
0,        600,        600,        0,   230400, 0x382e960f
0,        700,        700,        0,   230400, 0x62c863ea
0,        800,        800,        0,   230400, 0xbfccd3ce
0,        900,        900,        0,   230400, 0x1987cdd4
0,       1000,       1000,        0,   230400, 0x40279727
0,       1100,       1100,        0,   230400, 0x9d4f6746
0,       1200,       1200,        0,   230400, 0x7b8a77ec
0,       1300,       1300,        0,   230400, 0x2ce7a781
0,       1400,       1400,        0,   230400, 0xb749815e
0,       1500,       1500,        0,   230400, 0x61c88610
0,       1600,       1600,        0,   230400, 0x8449114d
0,       1700,       1700,        0,   230400, 0x5f73e666
0,       1800,       1800,        0,   230400, 0xbde53ce6
0,       1900,       1900,        0,   230400, 0x8c7406fd
0,       2000,       2000,        0,   230400, 0xf9e9a3ef
0,       2100,       2100,        0,   230400, 0x7e0a3077
0,       2200,       2200,        0,   230400, 0xd9245c5f
0,       2300,       2300,        0,   230400, 0x6d077ea2
0,       2400,       2400,        0,   230400, 0xf622bb2a
0,       2500,       2500,        0,   230400, 0x35292dc8
0,       2600,       2600,        0,   230400, 0xc0cea946
0,       2700,       2700,        0,   230400, 0x98b27b60
0,       2800,       2800,        0,   230400, 0x668ef6bd
0,       2900,       2900,        0,   230400, 0x6c07a31c
0,       3000,       3000,        0,   230400, 0x0b4a6ae1
0,       3100,       3100,        0,   230400, 0x945b9878
0,       3200,       3200,        0,   230400, 0xab28031c
0,       3300,       3300,        0,   230400, 0x977252b0
0,       3400,       3400,        0,   230400, 0x6c3d9706
0,       3500,       3500,        0,   230400, 0xe053bc2a
0,       3600,       3600,        0,   230400, 0x4cf2fc7c
0,       3700,       3700,        0,   230400, 0x610beda7
